<svg xmlns="http://www.w3.org/2000/svg" viewBox="0 0 256 256" width="256" height="256"><defs><linearGradient id="chromeV" x1="0" y1="0" x2="0" y2="1"><stop offset="0" stop-color="#ffffff"/><stop offset="0.1" stop-color="#e6f3fc"/><stop offset="0.27" stop-color="#9fbfd9"/><stop offset="0.43" stop-color="#eef6fc"/><stop offset="0.5" stop-color="#3a4655"/><stop offset="0.57" stop-color="#5b5069"/><stop offset="0.68" stop-color="#d6b3d2"/><stop offset="0.8" stop-color="#8a96a4"/><stop offset="0.92" stop-color="#d8e0e7"/><stop offset="1" stop-color="#ffffff"/></linearGradient><linearGradient id="chromeH" x1="0" y1="0" x2="1" y2="0"><stop offset="0" stop-color="#ffffff"/><stop offset="0.1" stop-color="#e6f3fc"/><stop offset="0.27" stop-color="#9fbfd9"/><stop offset="0.43" stop-color="#eef6fc"/><stop offset="0.5" stop-color="#3a4655"/><stop offset="0.57" stop-color="#5b5069"/><stop offset="0.68" stop-color="#d6b3d2"/><stop offset="0.8" stop-color="#8a96a4"/><stop offset="0.92" stop-color="#d8e0e7"/><stop offset="1" stop-color="#ffffff"/></linearGradient><linearGradient id="chromeDark" x1="0" y1="0" x2="0" y2="1"><stop offset="0" stop-color="#7a8592"/><stop offset="0.45" stop-color="#313b46"/><stop offset="0.5" stop-color="#1d252d"/><stop offset="0.62" stop-color="#4d4456"/><stop offset="0.82" stop-color="#8c96a2"/><stop offset="1" stop-color="#c2cbd3"/></linearGradient><linearGradient id="chromeTop" x1="0" y1="0" x2="0" y2="1"><stop offset="0" stop-color="#ffffff"/><stop offset="0.5" stop-color="#dfeaf3"/><stop offset="1" stop-color="#a9bfd1"/></linearGradient><linearGradient id="facetLit" x1="0" y1="0" x2="1" y2="1"><stop offset="0" stop-color="#ffffff"/><stop offset="0.45" stop-color="#e9f3fa"/><stop offset="0.8" stop-color="#a7c3db"/><stop offset="1" stop-color="#d9b9df"/></linearGradient><linearGradient id="facetShade" x1="0" y1="0" x2="1" y2="1"><stop offset="0" stop-color="#5e6976"/><stop offset="0.35" stop-color="#1c242c"/><stop offset="0.7" stop-color="#463c55"/><stop offset="1" stop-color="#a887ad"/></linearGradient><radialGradient id="sphereChrome" cx="0.36" cy="0.3" r="0.72"><stop offset="0" stop-color="#ffffff"/><stop offset="0.3" stop-color="#dbe8f2"/><stop offset="0.55" stop-color="#6b7887"/><stop offset="0.62" stop-color="#252e38"/><stop offset="0.78" stop-color="#6f5d7c"/><stop offset="1" stop-color="#c8d2db"/></radialGradient><linearGradient id="silver" x1="0" y1="0" x2="0" y2="1"><stop offset="0" stop-color="#ffffff"/><stop offset="0.55" stop-color="#e3e9ee"/><stop offset="1" stop-color="#adb8c2"/></linearGradient><linearGradient id="silverTop" x1="0" y1="0" x2="0" y2="1"><stop offset="0" stop-color="#ffffff"/><stop offset="1" stop-color="#e8eef3"/></linearGradient><linearGradient id="silverSide" x1="0" y1="0" x2="0" y2="1"><stop offset="0" stop-color="#c6cfd7"/><stop offset="1" stop-color="#7d8994"/></linearGradient><linearGradient id="screen" x1="0" y1="0" x2="0" y2="1"><stop offset="0" stop-color="#63aeff"/><stop offset="0.5" stop-color="#1257c4"/><stop offset="1" stop-color="#072a68"/></linearGradient><linearGradient id="glassBlue" x1="0" y1="0" x2="0" y2="1"><stop offset="0" stop-color="#d6efff"/><stop offset="0.5" stop-color="#48a1e9"/><stop offset="1" stop-color="#1466b8"/></linearGradient><linearGradient id="glassBlueSide" x1="0" y1="0" x2="0" y2="1"><stop offset="0" stop-color="#2a78c8"/><stop offset="1" stop-color="#0b3f86"/></linearGradient><linearGradient id="glassDeep" x1="0" y1="0" x2="0" y2="1"><stop offset="0" stop-color="#3f8ad8"/><stop offset="0.5" stop-color="#0f4f9f"/><stop offset="1" stop-color="#083a80"/></linearGradient><linearGradient id="glassNavy" x1="0" y1="0" x2="0" y2="1"><stop offset="0" stop-color="#31568a"/><stop offset="0.5" stop-color="#0f2c58"/><stop offset="1" stop-color="#07193a"/></linearGradient><linearGradient id="navySide" x1="0" y1="0" x2="0" y2="1"><stop offset="0" stop-color="#0b2247"/><stop offset="1" stop-color="#040f24"/></linearGradient><linearGradient id="navyTop" x1="0" y1="0" x2="0" y2="1"><stop offset="0" stop-color="#6c8fbf"/><stop offset="1" stop-color="#3a5f95"/></linearGradient><linearGradient id="whiteGlass" x1="0" y1="0" x2="0" y2="1"><stop offset="0" stop-color="#ffffff"/><stop offset="0.55" stop-color="#f1f6fa"/><stop offset="1" stop-color="#c9d5df"/></linearGradient><linearGradient id="whiteSide" x1="0" y1="0" x2="0" y2="1"><stop offset="0" stop-color="#c4cfd9"/><stop offset="1" stop-color="#97a5b2"/></linearGradient><linearGradient id="paper" x1="0" y1="0" x2="0" y2="1"><stop offset="0" stop-color="#ffffff"/><stop offset="1" stop-color="#e9eff5"/></linearGradient><linearGradient id="gold" x1="0" y1="0" x2="0" y2="1"><stop offset="0" stop-color="#fff4c4"/><stop offset="0.5" stop-color="#f3cd5e"/><stop offset="1" stop-color="#cf9a2a"/></linearGradient><linearGradient id="goldBack" x1="0" y1="0" x2="0" y2="1"><stop offset="0" stop-color="#e8c05e"/><stop offset="0.5" stop-color="#d3a137"/><stop offset="1" stop-color="#a97818"/></linearGradient><linearGradient id="goldSide" x1="0" y1="0" x2="0" y2="1"><stop offset="0" stop-color="#c48f22"/><stop offset="1" stop-color="#8f6210"/></linearGradient><linearGradient id="green" x1="0" y1="0" x2="0" y2="1"><stop offset="0" stop-color="#d9f9c8"/><stop offset="0.5" stop-color="#5fc963"/><stop offset="1" stop-color="#1f8b38"/></linearGradient><linearGradient id="emerald" x1="0" y1="0" x2="0" y2="1"><stop offset="0" stop-color="#c3f3d6"/><stop offset="0.45" stop-color="#28ab57"/><stop offset="1" stop-color="#0a5b2b"/></linearGradient><linearGradient id="red" x1="0" y1="0" x2="0" y2="1"><stop offset="0" stop-color="#ffb6b6"/><stop offset="0.5" stop-color="#e22b2b"/><stop offset="1" stop-color="#8e0d0d"/></linearGradient><linearGradient id="redSide" x1="0" y1="0" x2="0" y2="1"><stop offset="0" stop-color="#a51414"/><stop offset="1" stop-color="#5c0505"/></linearGradient><linearGradient id="skin" x1="0" y1="0" x2="0" y2="1"><stop offset="0" stop-color="#ffead8"/><stop offset="0.5" stop-color="#f3c19d"/><stop offset="1" stop-color="#cf9268"/></linearGradient><linearGradient id="sky" x1="0" y1="0" x2="0" y2="1"><stop offset="0" stop-color="#2a7fd6"/><stop offset="1" stop-color="#cbecff"/></linearGradient><linearGradient id="streak" x1="0" y1="0" x2="1" y2="1"><stop offset="0" stop-color="#ffffff" stop-opacity="0.6"/><stop offset="0.45" stop-color="#ffffff" stop-opacity="0.14"/><stop offset="1" stop-color="#ffffff" stop-opacity="0"/></linearGradient><linearGradient id="streakSoft" x1="0" y1="0" x2="1" y2="1"><stop offset="0" stop-color="#ffffff" stop-opacity="0.4"/><stop offset="0.5" stop-color="#ffffff" stop-opacity="0.08"/><stop offset="1" stop-color="#ffffff" stop-opacity="0"/></linearGradient><linearGradient id="topLight" x1="0" y1="0" x2="0" y2="1"><stop offset="0" stop-color="#ffffff" stop-opacity="0.8"/><stop offset="1" stop-color="#ffffff" stop-opacity="0"/></linearGradient><linearGradient id="bottomShade" x1="0" y1="0" x2="0" y2="1"><stop offset="0" stop-color="#000000" stop-opacity="0"/><stop offset="1" stop-color="#000000" stop-opacity="0.28"/></linearGradient><linearGradient id="cylSpec" x1="0" y1="0" x2="1" y2="0"><stop offset="0" stop-color="#ffffff" stop-opacity="0.05"/><stop offset="0.22" stop-color="#ffffff" stop-opacity="0.55"/><stop offset="0.5" stop-color="#ffffff" stop-opacity="0"/><stop offset="0.85" stop-color="#000000" stop-opacity="0"/><stop offset="1" stop-color="#000000" stop-opacity="0.3"/></linearGradient><radialGradient id="sphereBlue" cx="0.35" cy="0.3" r="0.75"><stop offset="0" stop-color="#dcf3ff"/><stop offset="0.4" stop-color="#2f8fe0"/><stop offset="1" stop-color="#0a3f8f"/></radialGradient><radialGradient id="sphereGreen" cx="0.35" cy="0.3" r="0.75"><stop offset="0" stop-color="#d8f9e3"/><stop offset="0.4" stop-color="#2fb45c"/><stop offset="1" stop-color="#0a5b2b"/></radialGradient><radialGradient id="warm" cx="0.5" cy="0.45" r="0.6"><stop offset="0" stop-color="#fffcec"/><stop offset="0.55" stop-color="#ffe15a"/><stop offset="1" stop-color="#f19a06"/></radialGradient><radialGradient id="warmGlow" cx="0.5" cy="0.5" r="0.5"><stop offset="0" stop-color="#ffe15a" stop-opacity="0.85"/><stop offset="1" stop-color="#ffe15a" stop-opacity="0"/></radialGradient><radialGradient id="led" cx="0.4" cy="0.35" r="0.7"><stop offset="0" stop-color="#ffd9d9"/><stop offset="0.45" stop-color="#ff2e2e"/><stop offset="1" stop-color="#8f0000"/></radialGradient><radialGradient id="ledGreen" cx="0.4" cy="0.35" r="0.7"><stop offset="0" stop-color="#eaffe6"/><stop offset="0.45" stop-color="#4fe15e"/><stop offset="1" stop-color="#0f7d2e"/></radialGradient><radialGradient id="spot" cx="0.5" cy="0.5" r="0.5"><stop offset="0" stop-color="#ffffff" stop-opacity="0.95"/><stop offset="1" stop-color="#ffffff" stop-opacity="0"/></radialGradient><radialGradient id="glintHalo" cx="0.5" cy="0.5" r="0.5"><stop offset="0" stop-color="#ffffff" stop-opacity="0.9"/><stop offset="0.4" stop-color="#dff7ff" stop-opacity="0.45"/><stop offset="1" stop-color="#ffffff" stop-opacity="0"/></radialGradient><radialGradient id="lens" cx="0.4" cy="0.35" r="0.7"><stop offset="0" stop-color="#cdefff"/><stop offset="0.5" stop-color="#1e90d8"/><stop offset="1" stop-color="#041f4a"/></radialGradient><radialGradient id="redCap" cx="0.4" cy="0.3" r="0.75"><stop offset="0" stop-color="#ffb3b3"/><stop offset="0.45" stop-color="#e62828"/><stop offset="1" stop-color="#8a0a0a"/></radialGradient>
<filter id="shadow" x="-20%" y="-20%" width="140%" height="150%"><feDropShadow dx="1.5" dy="3" stdDeviation="2.5" flood-color="#0b2a55" flood-opacity="0.3"/></filter>
<filter id="blur3" x="-50%" y="-200%" width="200%" height="500%"><feGaussianBlur stdDeviation="3"/></filter>
<filter id="blur7" x="-50%" y="-200%" width="200%" height="500%"><feGaussianBlur stdDeviation="7"/></filter>
<filter id="blur2" x="-50%" y="-50%" width="200%" height="200%"><feGaussianBlur stdDeviation="2"/></filter>
<filter id="glow" x="-60%" y="-60%" width="220%" height="220%"><feGaussianBlur stdDeviation="5" result="b"/><feMerge><feMergeNode in="b"/><feMergeNode in="b"/><feMergeNode in="SourceGraphic"/></feMerge></filter>
<filter id="glowSm" x="-60%" y="-60%" width="220%" height="220%"><feGaussianBlur stdDeviation="2.2" result="b"/><feMerge><feMergeNode in="b"/><feMergeNode in="SourceGraphic"/></feMerge></filter>
</defs><ellipse cx="128" cy="218" rx="75.9" ry="10.8" fill="#0b2a55" opacity="0.11" filter="url(#blur7)"/><ellipse cx="128" cy="218" rx="66" ry="6" fill="#0b2a55" opacity="0.32" filter="url(#blur3)"/><g filter="url(#shadow)"><path d="M102.99,100.1 Q116.11,77.43 114.08,26.97 L128,126 Z" fill="url(#facetLit)"/><path d="M114.08,26.97 Q126.05,76.04 144.9,94.21 L128,126 Z" fill="url(#facetShade)"/><line x1="128" y1="126" x2="117.56" y2="51.73" stroke="#ffffff" stroke-width="2" stroke-opacity="0.85" stroke-linecap="round"/><line x1="117.56" y1="51.73" x2="114.08" y2="26.97" stroke="#ffffff" stroke-width="1" stroke-opacity="0.6" stroke-linecap="round"/><path d="M102.99,100.1 Q116.11,77.43 114.08,26.97 Q126.05,76.04 144.9,94.21" fill="none" stroke="#243040" stroke-opacity="0.4" stroke-width="1"/><path d="M143.78,158.36 Q124.45,173.87 111.33,220.54 L128,126 Z" fill="url(#facetShade)"/><path d="M111.33,220.54 Q114.96,172.2 102.1,151.01 L128,126 Z" fill="url(#facetLit)"/><line x1="128" y1="126" x2="115.5" y2="196.91" stroke="#ffffff" stroke-width="2" stroke-opacity="0.85" stroke-linecap="round"/><line x1="115.5" y1="196.91" x2="111.33" y2="220.54" stroke="#ffffff" stroke-width="1" stroke-opacity="0.6" stroke-linecap="round"/><path d="M143.78,158.36 Q124.45,173.87 111.33,220.54 Q114.96,172.2 102.1,151.01" fill="none" stroke="#243040" stroke-opacity="0.4" stroke-width="1"/><path d="M158.53,106.92 Q172.98,124.62 217.78,132.28 L128,126 Z" fill="url(#facetLit)"/><path d="M217.78,132.28 Q172.35,133.63 155.58,149.14 L128,126 Z" fill="url(#facetShade)"/><line x1="128" y1="126" x2="195.34" y2="130.71" stroke="#ffffff" stroke-width="2" stroke-opacity="0.85" stroke-linecap="round"/><line x1="195.34" y1="130.71" x2="217.78" y2="132.28" stroke="#ffffff" stroke-width="1" stroke-opacity="0.6" stroke-linecap="round"/><path d="M158.53,106.92 Q172.98,124.62 217.78,132.28 Q172.35,133.63 155.58,149.14" fill="none" stroke="#243040" stroke-opacity="0.4" stroke-width="1"/><path d="M93.39,135.92 Q85.35,115.18 45.31,95.9 L128,126 Z" fill="url(#facetShade)"/><path d="M45.31,95.9 Q88.37,106.88 107.87,96.15 L128,126 Z" fill="url(#facetLit)"/><line x1="128" y1="126" x2="65.98" y2="103.43" stroke="#ffffff" stroke-width="2" stroke-opacity="0.85" stroke-linecap="round"/><line x1="65.98" y1="103.43" x2="45.31" y2="95.9" stroke="#ffffff" stroke-width="1" stroke-opacity="0.6" stroke-linecap="round"/><path d="M93.39,135.92 Q85.35,115.18 45.31,95.9 Q88.37,106.88 107.87,96.15" fill="none" stroke="#243040" stroke-opacity="0.4" stroke-width="1"/><path d="M129.26,90.02 Q149.34,92.17 177.25,62.96 L128,126 Z" fill="url(#facetLit)"/><path d="M177.25,62.96 Q155.67,97.11 162.61,116.08 L128,126 Z" fill="url(#facetShade)"/><line x1="128" y1="126" x2="164.94" y2="78.72" stroke="#ffffff" stroke-width="2" stroke-opacity="0.85" stroke-linecap="round"/><line x1="164.94" y1="78.72" x2="177.25" y2="62.96" stroke="#ffffff" stroke-width="1" stroke-opacity="0.6" stroke-linecap="round"/><path d="M129.26,90.02 Q149.34,92.17 177.25,62.96 Q155.67,97.11 162.61,116.08" fill="none" stroke="#243040" stroke-opacity="0.4" stroke-width="1"/><path d="M134.25,90.55 Q150.61,99.28 178.35,77.37 L128,126 Z" fill="url(#facetLit)"/><path d="M178.35,77.37 Q155.49,104.34 163.65,120.99 L128,126 Z" fill="url(#facetShade)"/><line x1="128" y1="126" x2="165.77" y2="89.53" stroke="#ffffff" stroke-width="2" stroke-opacity="0.85" stroke-linecap="round"/><line x1="165.77" y1="89.53" x2="178.35" y2="77.37" stroke="#ffffff" stroke-width="1" stroke-opacity="0.6" stroke-linecap="round"/><path d="M134.25,90.55 Q150.61,99.28 178.35,77.37 Q155.49,104.34 163.65,120.99" fill="none" stroke="#243040" stroke-opacity="0.4" stroke-width="1"/><path d="M113.36,158.89 Q100.41,145.87 69.11,160 L128,126 Z" fill="url(#facetShade)"/><path d="M69.11,160 Q97,139.96 92.2,122.24 L128,126 Z" fill="url(#facetLit)"/><line x1="128" y1="126" x2="83.83" y2="151.5" stroke="#ffffff" stroke-width="2" stroke-opacity="0.85" stroke-linecap="round"/><line x1="83.83" y1="151.5" x2="69.11" y2="160" stroke="#ffffff" stroke-width="1" stroke-opacity="0.6" stroke-linecap="round"/><path d="M113.36,158.89 Q100.41,145.87 69.11,160 Q97,139.96 92.2,122.24" fill="none" stroke="#243040" stroke-opacity="0.4" stroke-width="1"/><path d="M101.25,101.91 Q117.93,94.57 114.28,61.44 L128,126 Z" fill="url(#facetLit)"/><path d="M114.28,61.44 Q124.41,93.2 142.64,93.11 L128,126 Z" fill="url(#facetShade)"/><line x1="128" y1="126" x2="117.71" y2="77.58" stroke="#ffffff" stroke-width="2" stroke-opacity="0.85" stroke-linecap="round"/><line x1="117.71" y1="77.58" x2="114.28" y2="61.44" stroke="#ffffff" stroke-width="1" stroke-opacity="0.6" stroke-linecap="round"/><path d="M101.25,101.91 Q117.93,94.57 114.28,61.44 Q124.41,93.2 142.64,93.11" fill="none" stroke="#243040" stroke-opacity="0.4" stroke-width="1"/><path d="M162.61,135.92 Q150.13,149.11 167.4,176.43 L128,126 Z" fill="url(#facetShade)"/><path d="M167.4,176.43 Q145.07,153.07 129.26,161.98 L128,126 Z" fill="url(#facetLit)"/><line x1="128" y1="126" x2="157.55" y2="163.82" stroke="#ffffff" stroke-width="2" stroke-opacity="0.85" stroke-linecap="round"/><line x1="157.55" y1="163.82" x2="167.4" y2="176.43" stroke="#ffffff" stroke-width="1" stroke-opacity="0.6" stroke-linecap="round"/><path d="M162.61,135.92 Q150.13,149.11 167.4,176.43 Q145.07,153.07 129.26,161.98" fill="none" stroke="#243040" stroke-opacity="0.4" stroke-width="1"/><circle cx="128" cy="126" r="40" fill="#1a222b" opacity="0.35" filter="url(#blur2)"/><circle cx="128" cy="126" r="34" fill="url(#sphereChrome)"/><circle cx="128" cy="126" r="34" fill="none" stroke="#243040" stroke-opacity="0.3" stroke-width="1" stroke-linejoin="round"/><ellipse cx="117" cy="113" rx="12" ry="6.5" fill="#ffffff" opacity="0.9" transform="rotate(-32 117 113)"/><ellipse cx="137" cy="140" rx="10" ry="4.5" fill="#eab9de" opacity="0.65" transform="rotate(-32 137 140)"/><ellipse cx="142" cy="122" rx="4" ry="9" fill="#7ef9ff" opacity="0.35" transform="rotate(20 142 122)"/><g><circle cx="108" cy="106" r="14.4" fill="url(#glintHalo)"/><path d="M108,90 Q108,106 124,106 Q108,106 108,122 Q108,106 92,106 Q108,106 108,90 Z" fill="#ffffff"/><path d="M108,99.28 Q108,106 114.72,106 Q108,106 108,112.72 Q108,106 101.28,106 Q108,106 108,99.28 Z" fill="#ffffff" transform="rotate(45 108 106)" opacity="0.9"/></g><g><circle cx="212" cy="92" r="7.2" fill="url(#glintHalo)"/><path d="M212,84 Q212,92 220,92 Q212,92 212,100 Q212,92 204,92 Q212,92 212,84 Z" fill="#ffffff"/><path d="M212,88.64 Q212,92 215.36,92 Q212,92 212,95.36 Q212,92 208.64,92 Q212,92 212,88.64 Z" fill="#ffffff" transform="rotate(45 212 92)" opacity="0.9"/></g></g></svg>