<?xml version="1.0" encoding="iso-8859-1"?>
<!-- Uploaded to: SVG Repo, www.svgrepo.com, Generator: SVG Repo Mixer Tools -->
<!DOCTYPE svg PUBLIC "-//W3C//DTD SVG 1.1//EN" "http://www.w3.org/Graphics/SVG/1.1/DTD/svg11.dtd">
<svg height="800px" width="800px" version="1.1" id="Capa_1" xmlns="http://www.w3.org/2000/svg" xmlns:xlink="http://www.w3.org/1999/xlink" 
	 viewBox="0 0 512 512" xml:space="preserve">
<g>
	<path style="fill:#566E7F;" d="M392.001,0h-352c-2.774,0-5.344,1.438-6.805,3.797c-1.461,2.359-1.594,5.305-0.351,7.782
		l47.156,94.312V480c0,17.673,14.327,32,32,32h248c17.673,0,32-14.327,32-32V0z"/>
	<path style="fill:#B1C3D0;" d="M80.001,448h312v32c0,17.673-14.327,32-32,32h-248c-17.673,0-32-14.327-32-32V448z"/>
	<path style="fill:#ED2C39;" d="M420.001,424h-28v-24h28c6.627,0,12,5.373,12,12l0,0C432.001,418.627,426.628,424,420.001,424z"/>
	<path style="fill:#E2E4E6;" d="M272.001,336c-4.418,0-8-3.582-8-8c0-4.418,3.582-8,8-8h16v-16h-16c-4.418,0-8-3.582-8-8
		c0-4.418,3.582-8,8-8h16v-16h-16c-4.418,0-8-3.582-8-8c0-4.418,3.582-8,8-8h16v-16h-16c-4.418,0-8-3.582-8-8c0-4.418,3.582-8,8-8
		h16v-16h-16c-4.418,0-8-3.582-8-8c0-4.418,3.582-8,8-8h16v-16h-16c-4.418,0-8-3.582-8-8c0-4.418,3.582-8,8-8h16v-24
		c0-26.51-21.49-48-48-48c-26.51,0-48,21.49-48,48v208c0,26.51,21.49,48,48,48c26.51,0,48-21.49,48-48v-8H272.001z"/>
	<path style="fill:#4C9BD5;" d="M192.001,344c0,26.51,21.49,48,48,48c26.51,0,48-21.49,48-48v-8h-16c-4.418,0-8-3.582-8-8
		c0-4.418,3.582-8,8-8h16v-16h-16c-4.418,0-8-3.582-8-8c0-4.418,3.582-8,8-8h16v-16h-16c-4.418,0-8-3.582-8-8c0-4.418,3.582-8,8-8
		h16v-16h-16c-4.418,0-8-3.582-8-8c0-4.418,3.582-8,8-8h16v-16h-16c-4.418,0-8-3.582-8-8h-72V344z"/>
	<path style="fill:#8EADBE;" d="M376.001,464v16c0,8.837-7.163,16-16,16h-232c-8.837,0-16,7.163-16,16l0,0h144h32h72
		c17.673,0,32-14.327,32-32v-32l0,0C383.164,448,376.001,455.163,376.001,464z"/>
	<path style="fill:#3F556B;" d="M440.001,0h-48c-39.765,0-72,32.235-72,72v336c0,13.255-10.745,24-24,24h-200
		c-8.837,0-16,7.163-16,16h240h16h56V296h48c22.054,0,40-17.946,40-40V40C480.001,17.945,462.055,0,440.001,0z M448.001,256
		c0,4.414-3.585,8-8,8h-48V32h48c4.415,0,8,3.585,8,8V256z"/>
</g>
</svg>