<svg xmlns="http://www.w3.org/2000/svg" viewBox="0 0 256 256" width="32" height="32"><defs><linearGradient id="chromeV" x1="0" y1="0" x2="0" y2="1"><stop offset="0" stop-color="#ffffff"/><stop offset="0.1" stop-color="#e6f3fc"/><stop offset="0.27" stop-color="#9fbfd9"/><stop offset="0.43" stop-color="#eef6fc"/><stop offset="0.5" stop-color="#3a4655"/><stop offset="0.57" stop-color="#5b5069"/><stop offset="0.68" stop-color="#d6b3d2"/><stop offset="0.8" stop-color="#8a96a4"/><stop offset="0.92" stop-color="#d8e0e7"/><stop offset="1" stop-color="#ffffff"/></linearGradient><linearGradient id="chromeH" x1="0" y1="0" x2="1" y2="0"><stop offset="0" stop-color="#ffffff"/><stop offset="0.1" stop-color="#e6f3fc"/><stop offset="0.27" stop-color="#9fbfd9"/><stop offset="0.43" stop-color="#eef6fc"/><stop offset="0.5" stop-color="#3a4655"/><stop offset="0.57" stop-color="#5b5069"/><stop offset="0.68" stop-color="#d6b3d2"/><stop offset="0.8" stop-color="#8a96a4"/><stop offset="0.92" stop-color="#d8e0e7"/><stop offset="1" stop-color="#ffffff"/></linearGradient><linearGradient id="chromeDark" x1="0" y1="0" x2="0" y2="1"><stop offset="0" stop-color="#7a8592"/><stop offset="0.45" stop-color="#313b46"/><stop offset="0.5" stop-color="#1d252d"/><stop offset="0.62" stop-color="#4d4456"/><stop offset="0.82" stop-color="#8c96a2"/><stop offset="1" stop-color="#c2cbd3"/></linearGradient><linearGradient id="chromeTop" x1="0" y1="0" x2="0" y2="1"><stop offset="0" stop-color="#ffffff"/><stop offset="0.5" stop-color="#dfeaf3"/><stop offset="1" stop-color="#a9bfd1"/></linearGradient><linearGradient id="facetLit" x1="0" y1="0" x2="1" y2="1"><stop offset="0" stop-color="#ffffff"/><stop offset="0.45" stop-color="#e9f3fa"/><stop offset="0.8" stop-color="#a7c3db"/><stop offset="1" stop-color="#d9b9df"/></linearGradient><linearGradient id="facetShade" x1="0" y1="0" x2="1" y2="1"><stop offset="0" stop-color="#5e6976"/><stop offset="0.35" stop-color="#1c242c"/><stop offset="0.7" stop-color="#463c55"/><stop offset="1" stop-color="#a887ad"/></linearGradient><radialGradient id="sphereChrome" cx="0.36" cy="0.3" r="0.72"><stop offset="0" stop-color="#ffffff"/><stop offset="0.3" stop-color="#dbe8f2"/><stop offset="0.55" stop-color="#6b7887"/><stop offset="0.62" stop-color="#252e38"/><stop offset="0.78" stop-color="#6f5d7c"/><stop offset="1" stop-color="#c8d2db"/></radialGradient><linearGradient id="silver" x1="0" y1="0" x2="0" y2="1"><stop offset="0" stop-color="#ffffff"/><stop offset="0.55" stop-color="#e3e9ee"/><stop offset="1" stop-color="#adb8c2"/></linearGradient><linearGradient id="silverTop" x1="0" y1="0" x2="0" y2="1"><stop offset="0" stop-color="#ffffff"/><stop offset="1" stop-color="#e8eef3"/></linearGradient><linearGradient id="silverSide" x1="0" y1="0" x2="0" y2="1"><stop offset="0" stop-color="#c6cfd7"/><stop offset="1" stop-color="#7d8994"/></linearGradient><linearGradient id="screen" x1="0" y1="0" x2="0" y2="1"><stop offset="0" stop-color="#63aeff"/><stop offset="0.5" stop-color="#1257c4"/><stop offset="1" stop-color="#072a68"/></linearGradient><linearGradient id="glassBlue" x1="0" y1="0" x2="0" y2="1"><stop offset="0" stop-color="#d6efff"/><stop offset="0.5" stop-color="#48a1e9"/><stop offset="1" stop-color="#1466b8"/></linearGradient><linearGradient id="glassBlueSide" x1="0" y1="0" x2="0" y2="1"><stop offset="0" stop-color="#2a78c8"/><stop offset="1" stop-color="#0b3f86"/></linearGradient><linearGradient id="glassDeep" x1="0" y1="0" x2="0" y2="1"><stop offset="0" stop-color="#3f8ad8"/><stop offset="0.5" stop-color="#0f4f9f"/><stop offset="1" stop-color="#083a80"/></linearGradient><linearGradient id="glassNavy" x1="0" y1="0" x2="0" y2="1"><stop offset="0" stop-color="#31568a"/><stop offset="0.5" stop-color="#0f2c58"/><stop offset="1" stop-color="#07193a"/></linearGradient><linearGradient id="navySide" x1="0" y1="0" x2="0" y2="1"><stop offset="0" stop-color="#0b2247"/><stop offset="1" stop-color="#040f24"/></linearGradient><linearGradient id="navyTop" x1="0" y1="0" x2="0" y2="1"><stop offset="0" stop-color="#6c8fbf"/><stop offset="1" stop-color="#3a5f95"/></linearGradient><linearGradient id="whiteGlass" x1="0" y1="0" x2="0" y2="1"><stop offset="0" stop-color="#ffffff"/><stop offset="0.55" stop-color="#f1f6fa"/><stop offset="1" stop-color="#c9d5df"/></linearGradient><linearGradient id="whiteSide" x1="0" y1="0" x2="0" y2="1"><stop offset="0" stop-color="#c4cfd9"/><stop offset="1" stop-color="#97a5b2"/></linearGradient><linearGradient id="paper" x1="0" y1="0" x2="0" y2="1"><stop offset="0" stop-color="#ffffff"/><stop offset="1" stop-color="#e9eff5"/></linearGradient><linearGradient id="gold" x1="0" y1="0" x2="0" y2="1"><stop offset="0" stop-color="#fff4c4"/><stop offset="0.5" stop-color="#f3cd5e"/><stop offset="1" stop-color="#cf9a2a"/></linearGradient><linearGradient id="goldBack" x1="0" y1="0" x2="0" y2="1"><stop offset="0" stop-color="#e8c05e"/><stop offset="0.5" stop-color="#d3a137"/><stop offset="1" stop-color="#a97818"/></linearGradient><linearGradient id="goldSide" x1="0" y1="0" x2="0" y2="1"><stop offset="0" stop-color="#c48f22"/><stop offset="1" stop-color="#8f6210"/></linearGradient><linearGradient id="green" x1="0" y1="0" x2="0" y2="1"><stop offset="0" stop-color="#d9f9c8"/><stop offset="0.5" stop-color="#5fc963"/><stop offset="1" stop-color="#1f8b38"/></linearGradient><linearGradient id="emerald" x1="0" y1="0" x2="0" y2="1"><stop offset="0" stop-color="#c3f3d6"/><stop offset="0.45" stop-color="#28ab57"/><stop offset="1" stop-color="#0a5b2b"/></linearGradient><linearGradient id="red" x1="0" y1="0" x2="0" y2="1"><stop offset="0" stop-color="#ffb6b6"/><stop offset="0.5" stop-color="#e22b2b"/><stop offset="1" stop-color="#8e0d0d"/></linearGradient><linearGradient id="redSide" x1="0" y1="0" x2="0" y2="1"><stop offset="0" stop-color="#a51414"/><stop offset="1" stop-color="#5c0505"/></linearGradient><linearGradient id="skin" x1="0" y1="0" x2="0" y2="1"><stop offset="0" stop-color="#ffead8"/><stop offset="0.5" stop-color="#f3c19d"/><stop offset="1" stop-color="#cf9268"/></linearGradient><linearGradient id="sky" x1="0" y1="0" x2="0" y2="1"><stop offset="0" stop-color="#2a7fd6"/><stop offset="1" stop-color="#cbecff"/></linearGradient><linearGradient id="streak" x1="0" y1="0" x2="1" y2="1"><stop offset="0" stop-color="#ffffff" stop-opacity="0.6"/><stop offset="0.45" stop-color="#ffffff" stop-opacity="0.14"/><stop offset="1" stop-color="#ffffff" stop-opacity="0"/></linearGradient><linearGradient id="streakSoft" x1="0" y1="0" x2="1" y2="1"><stop offset="0" stop-color="#ffffff" stop-opacity="0.4"/><stop offset="0.5" stop-color="#ffffff" stop-opacity="0.08"/><stop offset="1" stop-color="#ffffff" stop-opacity="0"/></linearGradient><linearGradient id="topLight" x1="0" y1="0" x2="0" y2="1"><stop offset="0" stop-color="#ffffff" stop-opacity="0.8"/><stop offset="1" stop-color="#ffffff" stop-opacity="0"/></linearGradient><linearGradient id="bottomShade" x1="0" y1="0" x2="0" y2="1"><stop offset="0" stop-color="#000000" stop-opacity="0"/><stop offset="1" stop-color="#000000" stop-opacity="0.28"/></linearGradient><linearGradient id="cylSpec" x1="0" y1="0" x2="1" y2="0"><stop offset="0" stop-color="#ffffff" stop-opacity="0.05"/><stop offset="0.22" stop-color="#ffffff" stop-opacity="0.55"/><stop offset="0.5" stop-color="#ffffff" stop-opacity="0"/><stop offset="0.85" stop-color="#000000" stop-opacity="0"/><stop offset="1" stop-color="#000000" stop-opacity="0.3"/></linearGradient><radialGradient id="sphereBlue" cx="0.35" cy="0.3" r="0.75"><stop offset="0" stop-color="#dcf3ff"/><stop offset="0.4" stop-color="#2f8fe0"/><stop offset="1" stop-color="#0a3f8f"/></radialGradient><radialGradient id="sphereGreen" cx="0.35" cy="0.3" r="0.75"><stop offset="0" stop-color="#d8f9e3"/><stop offset="0.4" stop-color="#2fb45c"/><stop offset="1" stop-color="#0a5b2b"/></radialGradient><radialGradient id="warm" cx="0.5" cy="0.45" r="0.6"><stop offset="0" stop-color="#fffcec"/><stop offset="0.55" stop-color="#ffe15a"/><stop offset="1" stop-color="#f19a06"/></radialGradient><radialGradient id="warmGlow" cx="0.5" cy="0.5" r="0.5"><stop offset="0" stop-color="#ffe15a" stop-opacity="0.85"/><stop offset="1" stop-color="#ffe15a" stop-opacity="0"/></radialGradient><radialGradient id="led" cx="0.4" cy="0.35" r="0.7"><stop offset="0" stop-color="#ffd9d9"/><stop offset="0.45" stop-color="#ff2e2e"/><stop offset="1" stop-color="#8f0000"/></radialGradient><radialGradient id="ledGreen" cx="0.4" cy="0.35" r="0.7"><stop offset="0" stop-color="#eaffe6"/><stop offset="0.45" stop-color="#4fe15e"/><stop offset="1" stop-color="#0f7d2e"/></radialGradient><radialGradient id="spot" cx="0.5" cy="0.5" r="0.5"><stop offset="0" stop-color="#ffffff" stop-opacity="0.95"/><stop offset="1" stop-color="#ffffff" stop-opacity="0"/></radialGradient><radialGradient id="glintHalo" cx="0.5" cy="0.5" r="0.5"><stop offset="0" stop-color="#ffffff" stop-opacity="0.9"/><stop offset="0.4" stop-color="#dff7ff" stop-opacity="0.45"/><stop offset="1" stop-color="#ffffff" stop-opacity="0"/></radialGradient><radialGradient id="lens" cx="0.4" cy="0.35" r="0.7"><stop offset="0" stop-color="#cdefff"/><stop offset="0.5" stop-color="#1e90d8"/><stop offset="1" stop-color="#041f4a"/></radialGradient><radialGradient id="redCap" cx="0.4" cy="0.3" r="0.75"><stop offset="0" stop-color="#ffb3b3"/><stop offset="0.45" stop-color="#e62828"/><stop offset="1" stop-color="#8a0a0a"/></radialGradient>
<filter id="shadow" x="-20%" y="-20%" width="140%" height="150%"><feDropShadow dx="1.5" dy="3" stdDeviation="2.5" flood-color="#0b2a55" flood-opacity="0.3"/></filter>
<filter id="blur3" x="-50%" y="-200%" width="200%" height="500%"><feGaussianBlur stdDeviation="3"/></filter>
<filter id="blur7" x="-50%" y="-200%" width="200%" height="500%"><feGaussianBlur stdDeviation="7"/></filter>
<filter id="blur2" x="-50%" y="-50%" width="200%" height="200%"><feGaussianBlur stdDeviation="2"/></filter>
<filter id="glow" x="-60%" y="-60%" width="220%" height="220%"><feGaussianBlur stdDeviation="5" result="b"/><feMerge><feMergeNode in="b"/><feMergeNode in="b"/><feMergeNode in="SourceGraphic"/></feMerge></filter>
<filter id="glowSm" x="-60%" y="-60%" width="220%" height="220%"><feGaussianBlur stdDeviation="2.2" result="b"/><feMerge><feMergeNode in="b"/><feMergeNode in="SourceGraphic"/></feMerge></filter>
</defs><ellipse cx="130" cy="212" rx="69" ry="10.8" fill="#0b2a55" opacity="0.11" filter="url(#blur7)"/><ellipse cx="130" cy="212" rx="60" ry="6" fill="#0b2a55" opacity="0.32" filter="url(#blur3)"/><g filter="url(#shadow)"><ellipse cx="128" cy="206" rx="56" ry="12" fill="url(#chromeDark)"/><ellipse cx="128" cy="201" rx="56" ry="12" fill="url(#chromeH)"/><clipPath id="c5"><ellipse cx="128" cy="201" rx="56" ry="12"/></clipPath><g clip-path="url(#c5)"><rect x="89.92" y="189" width="6.72" height="24" fill="#ffffff" opacity="0.75"/></g><ellipse cx="128" cy="201" rx="56" ry="12" fill="none" stroke="#3a4655" stroke-opacity="0.5" stroke-width="3" stroke-linejoin="round"/><rect x="118" y="168" width="20" height="36" rx="2" ry="2" fill="url(#chromeH)"/><clipPath id="c6"><rect x="118" y="168" width="20" height="36" rx="2" ry="2"/></clipPath><g clip-path="url(#c6)"><rect x="121.2" y="168" width="1.2" height="36" fill="#ffffff" opacity="0.75"/></g><rect x="118" y="168" width="20" height="36" rx="2" ry="2" fill="none" stroke="#3a4655" stroke-opacity="0.5" stroke-width="3" stroke-linejoin="round"/><polygon points="54,44 202,44 212.2,38 64.2,38" fill="url(#silverTop)"/><polygon points="202,44 212.2,38 212.2,160 202,166" fill="url(#silverSide)"/><rect x="54" y="44" width="148" height="122" fill="url(#silver)"/><clipPath id="c8"><rect x="54" y="44" width="148" height="122"/></clipPath><g clip-path="url(#c8)"><rect x="64" y="54" width="128" height="92" rx="3" ry="3" fill="url(#screen)"/><clipPath id="c7"><rect x="64" y="54" width="128" height="92" rx="3" ry="3"/></clipPath><g clip-path="url(#c7)"><polygon points="64,54 150,54 96,146 64,146" fill="url(#streak)"/><rect x="64" y="54" width="128" height="92" fill="url(#bottomShade)" opacity="0.6"/></g><rect x="64" y="54" width="128" height="92" rx="3" ry="3" fill="none" stroke="#031a45" stroke-opacity="0.7" stroke-width="3" stroke-linejoin="round"/></g><polygon points="54,44 202,44 212.2,38 64.2,38" fill="none" stroke="#6f7c88" stroke-opacity="0.6" stroke-width="3" stroke-linejoin="round"/><polygon points="202,44 212.2,38 212.2,160 202,166" fill="none" stroke="#6f7c88" stroke-opacity="0.6" stroke-width="3" stroke-linejoin="round"/><rect x="54" y="44" width="148" height="122" fill="none" stroke="#6f7c88" stroke-opacity="0.6" stroke-width="3" stroke-linejoin="round"/><line x1="54" y1="44" x2="202" y2="44" stroke="#ffffff" stroke-opacity="0.85" stroke-width="1.5"/><circle cx="82" cy="70" r="2.5" fill="#ffffff" opacity="0.95"/></g></svg>